<?xml version="1.0" encoding="UTF-8"?>
<svg width="64px" height="64px" viewBox="0 0 64 64" version="1.1" xmlns="http://www.w3.org/2000/svg" xmlns:xlink="http://www.w3.org/1999/xlink">
    <!-- Generator: Sketch 53.2 (72643) - https://sketchapp.com -->
    <title>Group 8</title>
    <desc>Created with Sketch.</desc>
    <defs>
        <path d="M32,5.33333333 C17.28,5.33333333 5.33333333,17.28 5.33333333,32 C5.33333333,46.72 17.28,58.6666667 32,58.6666667 C46.72,58.6666667 58.6666667,46.72 58.6666667,32 C58.6666667,17.28 46.72,5.33333333 32,5.33333333 Z M32,13.3333333 C36.4266667,13.3333333 40,16.9066667 40,21.3333333 C40,25.76 36.4266667,29.3333333 32,29.3333333 C27.5733333,29.3333333 24,25.76 24,21.3333333 C24,16.9066667 27.5733333,13.3333333 32,13.3333333 Z M32,51.2 C25.3333333,51.2 19.44,47.7866667 16,42.6133333 C16.08,37.3066667 26.6666667,34.4 32,34.4 C37.3066667,34.4 47.92,37.3066667 48,42.6133333 C44.56,47.7866667 38.6666667,51.2 32,51.2 Z" id="path-1"></path>
    </defs>
    <g id="-Concierge-Chat-3.0-UI" stroke="none" stroke-width="1" fill="none" fill-rule="evenodd">
        <g id="Chat-List(Agent)" transform="translate(-16.000000, -484.000000)">
            <g id="Group-7" transform="translate(16.000000, 484.000000)">
                <g id="Group-8">
                    <circle id="Oval" fill="#EBEBEB" cx="32" cy="32" r="32"></circle>
                    <circle id="Oval" fill="#FFFFFF" cx="32" cy="32" r="22"></circle>
                    <g id="icon/action/account_circle_24px">
                        <mask id="mask-2" fill="white">
                            <use xlink:href="#path-1"></use>
                        </mask>
                        <use fill="#EBEBEB" fill-rule="evenodd" xlink:href="#path-1"></use>
                    </g>
                </g>
            </g>
        </g>
    </g>
</svg>